<svg width="350" height="350" viewBox="0 0 350 350" fill="none" xmlns="http://www.w3.org/2000/svg">
<g clip-path="url(#clip0_544_3316)">
<rect x="7.89575" y="7.80957" width="334.208" height="334.208" fill="#0B0B0B"/>
<rect x="2.28414" y="2.19772" width="345.432" height="345.432" stroke="#5988A8" stroke-width="3.74114"/>
<rect x="8.83104" y="8.74485" width="332.338" height="332.338" stroke="#5988A8" stroke-width="1.87057"/>
<rect x="285.364" y="14.667" width="49.8818" height="1.87057" rx="0.935284" fill="#5988A8"/>
<rect x="281.621" y="14.667" width="2.49409" height="1.87057" rx="0.935284" fill="#5988A8"/>
<rect x="298.228" y="27.9521" width="38.8437" height="1.87057" rx="0.935284" transform="rotate(-20 298.228 27.9521)" fill="#5988A8"/>
<rect x="300.49" y="47.9111" width="47.0119" height="1.87057" rx="0.935284" transform="rotate(-45 300.49 47.9111)" fill="#5988A8"/>
<rect x="296.585" y="51.6807" width="3.84545" height="1.87057" rx="0.935284" transform="rotate(-45 296.585 51.6807)" fill="#5988A8"/>
<rect x="324.524" y="38.4287" width="25.286" height="1.87057" rx="0.935284" transform="rotate(-70 324.524 38.4287)" fill="#5988A8"/>
<rect x="319.288" y="52.5264" width="14.4107" height="1.87057" rx="0.935284" transform="rotate(-70 319.288 52.5264)" fill="#5988A8"/>
<rect x="333.374" y="67.0439" width="52.3759" height="1.87057" rx="0.935286" transform="rotate(-90 333.374 67.0439)" fill="#5988A8"/>
<rect x="333.374" y="73.2793" width="4.98818" height="1.87057" rx="0.935285" transform="rotate(-90 333.374 73.2793)" fill="#5988A8"/>
<rect x="55.2812" y="335.159" width="40.529" height="1.87057" rx="0.935283" transform="rotate(-180 55.2812 335.159)" fill="#5988A8"/>
<rect x="68.3743" y="335.159" width="11.2234" height="1.87057" rx="0.935284" transform="rotate(-180 68.3743 335.159)" fill="#5988A8"/>
<rect x="39.5957" y="326.35" width="25.7556" height="1.87057" rx="0.935284" transform="rotate(160 39.5957 326.35)" fill="#5988A8"/>
<rect x="41.9321" y="309.623" width="36.1108" height="1.87057" rx="0.935284" transform="rotate(135 41.9321 309.623)" fill="#5988A8"/>
<rect x="46.2271" y="305.93" width="3.84545" height="1.87057" rx="0.935284" transform="rotate(135 46.2271 305.93)" fill="#5988A8"/>
<rect x="25.5886" y="311.397" width="25.286" height="1.87057" rx="0.935284" transform="rotate(110 25.5886 311.397)" fill="#5988A8"/>
<rect x="32.0347" y="294.646" width="14.4106" height="1.87057" rx="0.935284" transform="rotate(110 32.0347 294.646)" fill="#5988A8"/>
<rect x="16.6211" y="290.266" width="44.8937" height="1.87057" rx="0.935283" transform="rotate(90 16.6211 290.266)" fill="#5988A8"/>
<rect x="16.6211" y="280.288" width="8.72932" height="1.87057" rx="0.935284" transform="rotate(90 16.6211 280.288)" fill="#5988A8"/>
</g>
<defs>
<clipPath id="clip0_544_3316">
<rect width="349.173" height="349.173" fill="white" transform="translate(0.413574 0.327148)"/>
</clipPath>
</defs>
</svg>
