<svg width="83" height="43" viewBox="0 0 83 43" fill="none" xmlns="http://www.w3.org/2000/svg">
<path fill-rule="evenodd" clip-rule="evenodd" d="M25.52 25.3712V18.3712H21.45L21.35 29.3012L9.44 42.9112L7.86 31.6912L12.63 26.5112V18.4212H10.63L9.39 10.5912H4.28L0 1.84122L12.63 1.85121V0.851212H21.33V1.85121H25.23V0.741211H34.29V1.86121H47.39L43.68 8.86121H50.51L50.31 10.0112L58.78 10.0812L69.4 9.97121L69.59 8.87122H78.26L78.07 9.97121H82.51L80.98 18.5612H76.56L75.02 27.2812L69.39 32.0612L68.17 33.0612H65.26L25.51 32.9912V32.8012V25.3212L25.52 25.3712ZM37.15 18.4712H34.31C34.31 18.8612 34.31 19.2612 34.31 19.6512C34.31 20.2412 34.31 20.8412 34.31 21.4312L34.26 24.7112L38.97 24.7712L39.18 23.5612H37.77L38.66 18.5612L37.15 18.4912V18.4712ZM52.29 19.9712H52.44L52.68 18.6512H52.53L52.29 19.9712Z" fill="#000002"/>
<path fill-rule="evenodd" clip-rule="evenodd" d="M26.8783 26.211V18.371V16.861C26.6283 16.861 26.3783 16.861 26.2083 16.861H25.2083H19.9583L19.8583 28.631L10.2783 39.511L9.29828 32.071L13.9683 26.971V16.971H11.8183L10.8783 11.081H13.9883C13.9883 10.921 13.9883 10.751 13.9883 10.581C13.9883 10.411 13.9883 9.88104 13.9883 9.52104V9.21104L5.14828 9.16104L2.23828 3.21104L13.9783 3.27104V2.27104H19.8683V3.27104H26.6283V2.06104H32.8983V3.19104H45.0683L41.8983 9.13104H32.8983C32.8983 9.59104 32.8983 10.051 32.8983 10.501V11.031L41.2883 11.161L38.9383 16.971H32.8583C32.8583 17.841 32.8583 18.731 32.9183 19.581C32.9783 20.431 32.9183 21.471 32.9183 22.411C32.9183 22.711 32.9183 23.091 32.9183 23.471L32.9783 26.081H40.1483L40.8483 22.081H39.3983L40.2683 17.131L39.1583 17.081L41.6283 11.241H42.8283L43.0283 10.091H48.8583L48.6283 11.311L56.6283 11.221L69.7683 11.311H70.5183L70.7083 10.201H76.5383L76.3483 11.311H80.7883L79.7883 17.101H75.3583L73.7083 26.481L67.7983 31.481V31.621H66.3483L26.8783 31.571V31.391V26.221V26.211ZM21.0383 10.971L26.1983 10.841H26.4783V9.69104H26.6283V9.13104H19.9083L19.8483 10.971L21.0383 11.021V10.971ZM53.1383 21.281H53.6283L54.3583 17.151H52.6283H51.3283L50.6283 21.311L53.1383 21.281ZM67.8883 17.121L67.0283 22.021L62.2183 26.111H65.8483L68.2883 24.031L69.5083 17.031L67.8883 17.121Z" fill="white"/>
<path fill-rule="evenodd" clip-rule="evenodd" d="M25.8617 12.1313L21.8617 12.2313L20.8617 15.7313H24.4317L25.8517 12.1513L25.8617 12.1313ZM65.4917 27.3913L32.0817 27.3313L32.0117 25.3313L28.0917 27.0713V30.1913V30.3813L66.2217 30.4513L65.4717 27.4513L65.4917 27.3913ZM67.3517 30.2613L66.7017 27.0513L69.4317 24.7313L70.9917 15.8713H68.2617L69.3717 12.5013H71.6317L71.8217 11.4013H75.1417L74.9517 12.5013H79.3817L78.7917 15.8213H74.3617L72.6117 25.8213L67.4017 30.2513L67.3517 30.2613ZM52.6317 25.8313L54.0317 22.5213H60.2117L62.2117 20.8513H55.0117L55.6017 17.5313H66.6717L65.9917 21.4113L60.7817 25.8313H52.6317ZM54.6317 15.9213H66.9417L68.1217 12.6013L56.1217 12.6713L54.5517 15.9713L54.6317 15.9213ZM45.7617 20.9213L45.4717 22.5813H53.0117L51.4917 25.8813H41.4917L42.3717 20.8813H40.8717L41.4617 17.5613H42.9517L43.2117 16.0713L40.9817 15.9713L42.4117 12.5313L43.8317 12.5913L44.0417 11.4013H47.3617L47.1517 12.5913L54.7217 12.5013L53.1617 15.9113H46.5617L46.2717 17.5713H50.0017L49.4117 20.8913L45.7617 20.9213ZM15.2717 8.80127V7.89127H5.96172L4.26172 4.42126H15.2617V3.42126H18.6817V4.42126H27.8317V3.30127H31.6317V4.42126H42.9717L41.1317 7.89127H31.6317V11.1813V12.2513L39.4517 12.3713L38.1017 15.7613H31.6517C31.5517 17.7613 31.8717 23.2913 31.6517 24.0913L28.1117 26.0213V18.3813V15.7913C28.0217 15.5213 26.7517 15.6513 26.1117 15.6613L27.0517 12.1013H27.6317V10.9713H27.7317V7.97127H18.6817V9.07127L18.6317 12.1513L20.0917 12.2113L19.2017 15.7313H18.8617L18.7517 28.2413L11.2617 36.7613L10.6317 32.4813L15.2317 27.4813L15.2917 15.7713H12.9517L12.4117 12.3213H15.2917C15.2617 11.9113 15.3317 8.85127 15.2717 8.80127Z" fill="#ED1C24"/>
<mask id="mask0_474_14621" style="mask-type:luminance" maskUnits="userSpaceOnUse" x="4" y="3" width="76" height="34">
<path d="M25.8617 12.1313L21.8617 12.2313L20.8617 15.7313H24.4317L25.8517 12.1513L25.8617 12.1313ZM65.4917 27.3913L32.0817 27.3313L32.0117 25.3313L28.0917 27.0713V30.1913V30.3813L66.2217 30.4513L65.4717 27.4513L65.4917 27.3913ZM67.3517 30.2613L66.7017 27.0513L69.4317 24.7313L70.9917 15.8713H68.2617L69.3717 12.5013H71.6317L71.8217 11.4013H75.1417L74.9517 12.5013H79.3817L78.7917 15.8213H74.3617L72.6117 25.8213L67.4017 30.2513L67.3517 30.2613ZM52.6317 25.8313L54.0317 22.5213H60.2117L62.2117 20.8513H55.0117L55.6017 17.5313H66.6717L65.9917 21.4113L60.7817 25.8313H52.6317ZM54.6317 15.9213H66.9417L68.1217 12.6013L56.1217 12.6713L54.5517 15.9713L54.6317 15.9213ZM45.7617 20.9213L45.4717 22.5813H53.0117L51.4917 25.8813H41.4917L42.3717 20.8813H40.8717L41.4617 17.5613H42.9517L43.2117 16.0713L40.9817 15.9713L42.4117 12.5313L43.8317 12.5913L44.0417 11.4013H47.3617L47.1517 12.5913L54.7217 12.5013L53.1617 15.9113H46.5617L46.2717 17.5713H50.0017L49.4117 20.8913L45.7617 20.9213ZM15.2717 8.80127V7.89127H5.96172L4.26172 4.42126H15.2617V3.42126H18.6817V4.42126H27.8317V3.30127H31.6317V4.42126H42.9717L41.1317 7.89127H31.6317V11.1813V12.2513L39.4517 12.3713L38.1017 15.7613H31.6517C31.5517 17.7613 31.8717 23.2913 31.6517 24.0913L28.1117 26.0213V18.3813V15.7913C28.0217 15.5213 26.7517 15.6513 26.1117 15.6613L27.0517 12.1013H27.6317V10.9713H27.7317V7.97127H18.6817V9.07127L18.6317 12.1513L20.0917 12.2113L19.2017 15.7313H18.8617L18.7517 28.2413L11.2617 36.7613L10.6317 32.4813L15.2317 27.4813L15.2917 15.7713H12.9517L12.4117 12.3213H15.2917C15.2617 11.9113 15.3317 8.85127 15.2717 8.80127Z" fill="white"/>
</mask>
<g mask="url(#mask0_474_14621)">
<path d="M92.1134 0.661133H-13.4766V36.9111H92.1134V0.661133Z" fill="url(#paint0_linear_474_14621)" stroke="#231F20" stroke-width="0.5" stroke-miterlimit="2.61"/>
</g>
<defs>
<linearGradient id="paint0_linear_474_14621" x1="39.3634" y1="4.67113" x2="39.2634" y2="41.2611" gradientUnits="userSpaceOnUse">
<stop stop-color="#ED1C24"/>
<stop offset="1" stop-color="#F99F33"/>
</linearGradient>
</defs>
</svg>
