<svg width="161" height="150" viewBox="0 0 161 150" fill="none" xmlns="http://www.w3.org/2000/svg">
<path d="M0.999994 1.00049L0.999999 134.201M0.999994 1.00049L87.3906 89.687M0.999994 1.00049L134.201 1.00048M0.999994 1.00049L159.891 75.1094M0.999994 1.00049L58.8906 149.609" stroke="#DDDAD5" stroke-width="2"/>
<path d="M1.34375 93.4531C6.18269 86.2243 20.104 76.1039 37.0775 93.4531C35.2163 81.8489 38.0825 60.0102 64.4361 65.4889C63.1333 54.8359 66.2228 35.1277 89.003 41.5196C80.4418 33.72 68.4561 14.6967 89.003 0.999974" stroke="#DDDAD5" stroke-width="2"/>
<path d="M1.34375 127.695C7.95949 117.789 26.9925 103.92 50.1984 127.695C47.6539 111.793 51.5725 81.8661 87.6028 89.374C85.8217 74.7754 90.0456 47.7679 121.19 56.5271C109.486 45.8388 93.099 19.7699 121.19 1.00025" stroke="#DDDAD5" stroke-width="2"/>
<path d="M1.34375 64.6904C4.67052 59.7106 14.2414 52.7387 25.9107 64.6904C24.6312 56.6964 26.6016 41.652 44.7197 45.4262C43.8241 38.0874 45.9481 24.5107 61.6095 28.914C55.7237 23.541 47.4835 10.436 61.6095 1.00048" stroke="#DDDAD5" stroke-width="2"/>
<path d="M1.34375 42.7754C3.5364 39.509 9.84447 34.9361 17.5356 42.7754C16.6923 37.532 17.991 27.6641 29.9325 30.1397C29.3421 25.3261 30.7421 16.421 41.0644 19.3091C37.1851 15.7849 31.7541 7.18917 41.0644 1.00026" stroke="#DDDAD5" stroke-width="2"/>
</svg>
