<svg width="180" height="124" viewBox="0 0 180 124" fill="none" xmlns="http://www.w3.org/2000/svg">
<path d="M141.657 85.9558L149.592 71.013L149.981 69.9649L150.06 103.15L149.066 103.258L148.784 105.3L149.443 106.737L147.347 105.959L148.018 102.868L142.472 112.02L143.227 118.979L145.485 121.249L142.341 120.081L140.927 111.685L146.472 102.533L146.365 101.539L132.38 107.079L126.5 117.776L132.165 105.091L146.203 100.048L131.464 98.6289L126.181 91.6579L126.648 82.0515L127.511 90.0049L132.847 97.4729L146.041 98.5565L145.771 96.0711L134.2 86.7646L137.943 70.2648L145.854 64.3773L139.931 70.0491L135.692 86.6028L145.61 94.5798L141.657 85.9558Z" fill="#DD614B" stroke="#DD614B" stroke-linejoin="round"/>
<path d="M158.734 85.9558L150.799 71.013L150.41 69.9649L150.331 103.15L151.325 103.258L151.606 105.3L150.948 106.737L153.044 105.959L152.373 102.868L157.919 112.02L157.164 118.979L154.906 121.249L158.05 120.081L159.464 111.685L153.918 102.533L154.026 101.539L168.01 107.079L173.891 117.776L168.226 105.091L154.188 100.048L168.927 98.6289L174.209 91.6579L173.742 82.0515L172.88 90.0049L167.543 97.4729L154.35 98.5565L154.619 96.0711L166.19 86.7646L162.448 70.2648L154.536 64.3773L160.459 70.0491L164.699 86.6028L154.781 94.5798L158.734 85.9558Z" fill="#DD614B" stroke="#DD614B" stroke-linejoin="round"/>
<path d="M2 1C5.81443 29.178 39.3814 42.822 48.9175 1C48.9175 19.9831 75.2371 30.0678 82.1031 1C82.1031 36.2966 132.454 71.8898 150 1V71" stroke="#DD614B" stroke-width="3"/>
</svg>
