<svg width="130" height="11" viewBox="0 0 130 11" fill="none" xmlns="http://www.w3.org/2000/svg">
<rect x="0.0742188" y="4.5" width="40" height="1.5" rx="0.75" fill="white"/>
<path d="M57.2945 2.26543C57.3481 2.17369 57.4381 2.10899 57.5421 2.0874L60.3326 1.50824C60.5969 1.45339 60.8308 1.68733 60.776 1.95162L60.1968 4.74214C60.1752 4.84616 60.1105 4.93615 60.0188 4.98974L54.701 8.09616C54.368 8.29071 53.9935 7.91624 54.1881 7.58321L57.2945 2.26543Z" fill="white"/>
<path d="M63.0736 3.16143C63.0467 3.05867 63.0645 2.94929 63.1228 2.86047L64.6865 0.477742C64.8346 0.25207 65.1654 0.25207 65.3135 0.477742L66.8772 2.86047C66.9355 2.94929 66.9533 3.05867 66.9264 3.16143L65.3627 9.11824C65.2648 9.49129 64.7352 9.49129 64.6373 9.11824L63.0736 3.16143Z" fill="white"/>
<path d="M69.9842 4.98968C69.8924 4.93609 69.8277 4.84611 69.8062 4.74209L69.227 1.95157C69.1721 1.68727 69.4061 1.45333 69.6704 1.50819L72.4609 2.08735C72.5649 2.10894 72.6549 2.17364 72.7085 2.26538L75.8149 7.58316C76.0095 7.91619 75.635 8.29065 75.302 8.09611L69.9842 4.98968Z" fill="white"/>
<rect x="89.9297" y="4.5" width="40" height="1.5" rx="0.75" fill="white"/>
</svg>
